<svg width="28" height="28" viewBox="0 0 28 28" fill="none" xmlns="http://www.w3.org/2000/svg">
<path d="M24.5498 15.6356L24.8455 12.8902C25.0777 10.734 25.1937 9.65594 24.8304 9.20476C24.6339 8.96069 24.3641 8.80914 24.0741 8.77973C23.5377 8.72536 22.8531 9.48395 21.4838 11.0012C20.7757 11.7858 20.4217 12.1781 20.0318 12.2344C19.8158 12.2655 19.5966 12.2275 19.3989 12.1247C19.0421 11.9391 18.8092 11.4451 18.3433 10.4571L15.888 5.24925C15.0077 3.38226 14.5676 2.44876 13.8788 2.43951C13.19 2.43025 12.7249 3.35159 11.7948 5.19428L9.20045 10.3343C8.70825 11.3094 8.46214 11.797 8.10048 11.973C7.90009 12.0704 7.67998 12.1025 7.46488 12.0656C7.07667 11.9988 6.73327 11.5972 6.04647 10.7938C4.71845 9.24034 4.05443 8.46363 3.51686 8.50358C3.22605 8.52518 2.95239 8.66944 2.74936 8.90813C2.37405 9.34939 2.46113 10.4302 2.63532 12.5918L2.8571 15.3442C3.22254 19.8792 3.40526 22.1468 4.72181 23.5302C6.03838 24.9137 8.03908 24.9406 12.0405 24.9943L15.1105 25.0356C19.1119 25.0893 21.1127 25.1162 22.4659 23.7685C23.8191 22.421 24.0626 20.1592 24.5498 15.6356Z" fill="#AC6AFF"/>
</svg>
